<svg width="143" height="143" viewBox="0 0 143 143" fill="none" xmlns="http://www.w3.org/2000/svg">
<g clip-path="url(#clip0_19_2)">
<path d="M82.1009 46.5238C83.4448 45.3243 84.166 43.3436 83.7943 41.5952C83.4227 39.8467 82.1769 38.2841 80.2426 37.7816L57.1427 30.8724C56.7757 30.7627 56.448 30.5498 56.1984 30.2592L40.491 11.9666C39.2917 10.6226 37.311 9.9014 35.5625 10.273C33.8141 10.6447 32.2515 11.8905 31.7488 13.8248L24.8397 36.9247C24.7299 37.2917 24.5171 37.6195 24.2265 37.869L5.93395 53.5764C4.58987 54.7757 3.86874 56.7564 4.24038 58.5049C4.61202 60.2533 5.85789 61.8159 7.79216 62.3186L30.892 69.2276C31.259 69.3374 31.5867 69.5502 31.8362 69.8408L47.5436 88.1335C48.7431 89.4775 50.7238 90.1986 52.4722 89.827C54.2207 89.4554 55.7833 88.2095 56.2858 86.2753L63.195 63.1753C63.3047 62.8084 63.5176 62.4806 63.8082 62.2311L82.1009 46.5238ZM54.3477 57.9224C54.2481 58.0854 54.1667 58.2591 54.1121 58.4422L50.4406 70.7495C49.9881 72.2665 48.0362 72.6814 47.0058 71.4796L38.4585 61.5109C37.8355 60.7296 37.0405 60.2133 36.0733 59.962L23.49 56.2083C21.9731 55.7557 21.5582 53.8038 22.7599 52.7734L32.7285 44.2261C33.5099 43.6032 34.0262 42.8082 34.2775 41.841L38.0312 29.2576C38.4837 27.7407 40.4356 27.3258 41.4661 28.5275L50.0134 38.4962C50.6363 39.2776 51.4314 39.7938 52.3985 40.0452L64.9818 43.7989C66.4988 44.2514 66.9137 46.2033 65.7119 47.2337L55.7433 55.781C55.2367 56.3 54.8054 57.1733 54.3477 57.9224Z" fill="black"/>
<path d="M113.323 91.2446L102.739 86.7402L96.133 77.3244C95.0806 75.8623 93.1861 74.938 91.4084 75.1249C89.6307 75.3117 87.9464 76.3875 87.2444 78.2586L82.9623 88.8188L73.3244 95.4486C71.8623 96.5012 70.938 98.3952 71.1249 100.173C71.3117 101.951 72.3875 103.635 74.2586 104.337L84.842 108.841L91.4484 118.257C92.5007 119.719 94.3952 120.643 96.1729 120.456C97.9506 120.269 99.6349 119.193 100.337 117.323L104.841 106.739L114.257 100.133C115.719 99.081 116.644 97.186 116.457 95.4088C116.27 93.6306 115.194 91.9469 113.323 91.2446ZM97.9773 99.1479C97.1353 99.6859 96.5386 100.422 96.1877 101.358L94.5381 104.902L92.41 101.755C91.8722 100.913 91.1354 100.317 90.1999 99.9654L86.6799 98.5385L89.8262 96.41C90.6683 95.872 91.265 95.1356 91.6159 94.1998L93.0433 90.6803L95.1713 93.8261C95.7092 94.6685 96.4459 95.2647 97.3815 95.6159L100.902 97.0437L97.9773 99.1479Z" fill="black"/>
<path d="M136.915 30.4137L127.616 23.6442L123.297 12.9837C122.601 11.3223 120.962 9.99551 119.189 9.77773C117.414 9.55983 115.531 10.2292 114.426 11.8944L107.656 21.1934L96.996 25.5123C95.3348 26.2087 94.0081 27.8468 93.7902 29.6209C93.5724 31.3951 94.2416 33.2782 95.9068 34.3832L105.206 41.1528L109.525 51.8133C110.221 53.4747 111.859 54.8014 113.634 55.0193C115.407 55.237 117.291 54.5678 118.396 52.9026L125.166 43.6036L135.826 39.2846C137.487 38.5881 138.814 36.9501 139.032 35.176C139.25 33.4018 138.358 31.4914 136.915 30.4137ZM119.963 34.6355C119.022 34.9702 118.274 35.5537 117.722 36.3864L115.54 39.4951L114.173 35.9507C113.84 35.0092 113.255 34.2622 112.423 33.7096L109.314 31.5271L112.858 30.1613C113.8 29.8268 114.548 29.2432 115.099 28.4104L117.282 25.3017L118.648 28.8461C118.982 29.7877 119.567 30.5348 120.399 31.0871L123.508 33.2698L119.963 34.6355Z" fill="black"/>
</g>
<defs>
<clipPath id="clip0_19_2">
<rect width="143" height="143" fill="white"/>
</clipPath>
</defs>
</svg>
