<svg width="195" height="195" viewBox="0 0 195 195" fill="none" xmlns="http://www.w3.org/2000/svg">
<path d="M85.3338 40.7624L80.9787 29.72C78.168 22.5933 68.082 22.5933 65.2713 29.72L56.5611 51.8049C55.703 53.9807 53.9807 55.703 51.8049 56.5611L29.72 65.2713C22.5933 68.082 22.5933 78.168 29.72 80.9787L51.8049 89.6889C53.9807 90.547 55.703 92.2693 56.5611 94.4451L65.2713 116.53C68.082 123.657 78.168 123.657 80.9787 116.53L89.6889 94.4451C90.547 92.2693 92.2693 90.547 94.4451 89.6889L116.53 80.9787C123.657 78.168 123.657 68.082 116.53 65.2713L105.488 60.9162" stroke="black" stroke-width="12" stroke-linecap="round"/>
<path d="M133.969 108.454C135.456 104.682 140.794 104.682 142.281 108.454L148.786 124.947C149.24 126.098 150.152 127.01 151.303 127.464L167.796 133.969C171.568 135.456 171.568 140.794 167.796 142.281L151.303 148.786C150.152 149.24 149.24 150.152 148.786 151.303L142.281 167.796C140.794 171.568 135.456 171.568 133.969 167.796L127.464 151.303C127.01 150.152 126.098 149.24 124.947 148.786L108.454 142.281C104.682 140.794 104.682 135.456 108.454 133.969L124.947 127.464C126.098 127.01 127.01 126.098 127.464 124.947L133.969 108.454Z" stroke="black" stroke-width="10"/>
</svg>
